# AST/ASF file generated using VICON BodyLanguage
# -----------------------------------------------
:version 1.10
:name VICON
:units
  mass 1.0
  length 0.45
  angle deg
:documentation
   .ast/.asf automatically generated from VICON data using
   VICON BodyBuilder and BodyLanguage model FoxedUp or BRILLIANT.MOD
:root
   order TX TY TZ RX RY RZ
   axis XYZ
   position 0 0 0  
   orientation 0 0 0 
:bonedata
  begin
     id 1 
     name lhipjoint
     direction 0.645893 -0.654526 0.392961 
     length 2.38111 
     axis 0 0 0  XYZ
  end
  begin
     id 2 
     name lfemur
     direction 0.34202 -0.939693 0  
     length 6.6822  
     axis 0 0 20  XYZ
    dof rx ry rz
    limits (-160.0 20.0)
           (-70.0 70.0)
           (-60.0 70.0)
  end
  begin
     id 3 
     name ltibia
     direction 0.34202 -0.939693 0   
     length 6.93904   
     axis 0 0 20   XYZ
    dof rx
    limits (-10.0 170.0)
  end
  begin
     id 4 
     name lfoot
     direction 0.0694967 -0.190941 0.979138   
     length 2.13616   
     axis -90 7.62852e-016 20   XYZ
    dof rx rz
    limits (-45.0 90.0)
           (-70.0 20.0)
  end
  begin
     id 5 
     name ltoes
     direction 1.535e-011 -4.2202e-011 1   
     length 1.07536   
     axis -90 7.62852e-016 20   XYZ
    dof rx
    limits (-90.0 20.0)
  end
  begin
     id 6 
     name rhipjoint
     direction -0.700219 -0.612087 0.367481   
     length 2.54621  
     axis 0 0 0  XYZ 
  end
  begin
     id 7 
     name rfemur
     direction -0.34202 -0.939693 0   
     length 6.55353   
     axis 0 0 -20   XYZ
    dof rx ry rz
    limits (-160.0 20.0)
           (-70.0 70.0)
           (-70.0 60.0)
  end
  begin
     id 8 
     name rtibia
     direction -0.34202 -0.939693 0   
     length 6.8736   
     axis 0 0 -20   XYZ
    dof rx
    limits (-10.0 170.0)
 end
 begin
     id 9 
     name rfoot
     direction -0.0679995 -0.186827 0.980037   
     length 2.1218  
     axis -90 -7.62852e-016 -20   XYZ
    dof rx rz
    limits (-45.0 90.0)
           (-20.0 70.0)
  end
  begin
     id 10 
     name rtoes
     direction -1.53589e-011 -4.21772e-011 1   
     length 1.06864   
     axis -90 -7.62852e-016 -20   XYZ
    dof rx
    limits (-90.0 20.0)
  end
  begin
     id 11 
     name lowerback
     direction -0.0416607 0.996347 -0.0745409   
     length 2.12205   
     axis 0 0 0   XYZ
    dof rx ry rz
    limits (-20.0 45.0)
           (-30.0 30.0)
           (-30.0 30.0)
  end
  begin
     id 12 
     name upperback
     direction -0.000153993 0.999276 -0.0380568   
     length 2.12759   
     axis 0 0 0   XYZ
    dof rx ry rz
    limits (-20.0 45.0)
           (-30.0 30.0)
           (-30.0 30.0)
  end
  begin
     id 13 
     name thorax
     direction 0.0187671 0.999821 -0.00241421   
     length 2.13704   
     axis 0 0 0   XYZ
    dof rx ry rz
    limits (-20.0 45.0)
           (-30.0 30.0)
           (-30.0 30.0)
  end
  begin
     id 14 
     name lowerneck
     direction 0.0268157 0.964865 0.261374   
     length 1.65253   
     axis 0 0 0   XYZ
    dof rx ry rz
    limits (-20.0 45.0)
           (-30.0 30.0)
           (-30.0 30.0)
  end
  begin
     id 15 
     name upperneck
     direction 0.00263774 0.939908 -0.341418   
     length 1.72375   
     axis 0 0 0   XYZ
    dof rx ry rz
    limits (-20.0 45.0)
           (-30.0 30.0)
           (-30.0 30.0)
  end
  begin
     id 16
     name head
     direction -0.00526001 0.989001 -0.147818  
     length 1.74878  
     axis 0 0 0   XYZ
    dof rx ry rz
    limits (-20.0 45.0)
           (-30.0 30.0)
           (-30.0 30.0)
  end
  begin
     id 17 
     name lclavicle
     direction 0.881214 0.461162 -0.103884  
     length 3.25108  
     axis 0 0 0   XYZ
    dof ry rz
    limits (-20.0 10.0)
           (0.0 20.0)
  end
  begin
     id 18 
     name lhumerus
     direction 1 -4.4899e-011 3.38092e-027   
     length 4.87408   
     axis 180 -30 -90   XYZ
    dof rx ry rz
    limits (-60.0 90.0)
           (-90.0 90.0)
           (-90.0 90.0)
  end
  begin
     id 19
     name lradius
     direction 1 -4.48931e-011 9.96288e-027   
     length 2.76729   
     axis 180 -30 -90   XYZ
    dof rx
    limits (-10.0 170.0)
  end
  begin
     id 20
     name lwrist
     direction 1 -4.4896e-011 1.50617e-026   
     length 1.38364   
     axis -9.31234e-015 90 90   XYZ
    dof ry
    limits (-180.0 0.0)
 end
  begin
     id 21 
     name lhand
     direction 1 -4.49038e-011 3.01286e-026   
     length 0.98922   
     axis -1.92217e-014 90 90   XYZ
    dof rx rz
    limits (-90.0 90.0)
           (-45.0 45.0)
  end
  begin
     id 22 
     name lfingers
     direction 1 -4.49051e-011 6.02588e-026   
     length 0.797535   
     axis -3.84436e-014 90 90   XYZ
    dof rx
    limits (0.0 90.0)
  end
  begin
     id 23
     name lthumb
     direction 0.707107 -6.34901e-011 0.707107   
     length 1.14511   
     axis -90 45 2.19363e-014   XYZ
    dof rx rz
    limits (-45.0 45.0)
           (-45.0 45.0)
  end
  begin
     id 24 
     name rclavicle
     direction -0.893894 0.441652 -0.0767889   
     length 3.29361  
     axis 0 0 0   XYZ 
    dof ry rz
    limits (-10.0 20.0)
           (-20.0 0.0)
  end
  begin
     id 25 
     name rhumerus
     direction -1 -4.48945e-011 8.0491e-028  
     length 4.71404   
     axis 180 30 90   XYZ
    dof rx ry rz
    limits (-90.0 60.0)
           (-90.0 90.0)
           (-90.0 90.0)
  end
  begin
     id 26 
     name rradius
     direction -1 -4.48986e-011 9.27795e-027   
     length 2.83468   
     axis 180 30 90   XYZ
    dof rx
    limits (-10.0 170.0)
  end
  begin
     id 27 
     name rwrist
     direction -1 -4.49029e-011 1.5064e-026   
     length 1.41734   
     axis -9.31234e-015 -90 -90   XYZ
    dof ry
    limits (-180.0 0.0)
  end
  begin
     id 28
     name rhand
     direction -1 -4.48857e-011 3.01165e-026   
     length 0.868195   
     axis -1.92217e-014 -90 -90   XYZ
    dof rx rz
    limits (-90.0 90.0)
           (-45.0 45.0)
  end
  begin
     id 29
     name rfingers
     direction -1 -4.49048e-011 6.02585e-026   
     length 0.699961   
     axis -3.84436e-014 -90 -90   XYZ
    dof rx
    limits (0.0 90.0)
  end
  begin
     id 30
     name rthumb
     direction -0.707107 -6.34854e-011 0.707107   
     length 1.00501   
     axis -90 -45 -2.19363e-014   XYZ
    dof rx rz
    limits (-45.0 45.0)
           (-45.0 45.0)
  end
:hierarchy
  begin
    root lhipjoint rhipjoint lowerback
    lhipjoint lfemur
    lfemur ltibia
    ltibia lfoot
    lfoot ltoes
    rhipjoint rfemur
    rfemur rtibia
    rtibia rfoot
    rfoot rtoes
    lowerback upperback
    upperback thorax
    thorax lowerneck lclavicle rclavicle
    lowerneck upperneck
    upperneck head
    lclavicle lhumerus
    lhumerus lradius
    lradius lwrist
    lwrist lhand lthumb
    lhand lfingers
    rclavicle rhumerus
    rhumerus rradius
    rradius rwrist
    rwrist rhand rthumb
    rhand rfingers
  end

#!OML:ASF H:\ManfredObstacles\Project 1\Capture day 2\Session 1\male.ASF
:FULLY-SPECIFIED
:DEGREES
32
root 1.52704 15.6362 27.0483 -178.849 1.87252 183.404
lowerback 1.41561 2.94057 -0.0855146
upperback 3.46666 4.09946 -0.676306
thorax 2.81101 2.1216 -0.597989
lowerneck -28.644 1.56235 2.13618
upperneck 41.8929 -2.96365 1.09262
head 22.202 -1.59807 -1.00761
rclavicle -4.68138e-014 2.22639e-014
rhumerus -38.3189 7.97868 -94.705
rradius 75.869
rwrist 11.3684
rhand -11.3112 -4.50485
rfingers 7.12502
rthumb 14.7207 -33.9622
lclavicle -4.68138e-014 2.22639e-014
lhumerus -52.478 -15.531 86.8514
lradius 77.4661
lwrist -19.8932
lhand -17.179 10.2016
lfingers 7.12502
lthumb 9.0626 39.9869
rfemur -1.46501 1.67002 32.1433
rtibia 27.8272
rfoot -8.91344 -16.9289
rtoes -21.9189
lfemur -41.2511 0.319814 -14.4246
ltibia 53.3149
lfoot 15.4631 13.0658
ltoes -7.72239
33
root 1.53415 15.6719 26.8589 -178.559 1.6539 183.553
lowerback 1.18546 3.14918 0.0573661
upperback 3.38853 4.37275 -0.74949
thorax 2.87943 2.25952 -0.736895
lowerneck -28.6828 1.40872 2.0863
upperneck 41.9456 -3.22087 1.15592
head 22.2554 -1.68486 -1.03337
rclavicle 3.12092e-014 -9.54166e-015
rhumerus -37.6779 8.25562 -94.8248
rradius 76.0481
rwrist 11.4417
rhand -11.1844 -4.46978
rfingers 7.12502
rthumb 14.8428 -33.9181
lclavicle 3.12092e-014 -9.54166e-015
lhumerus -52.2946 -15.825 86.6547
lradius 77.0808
lwrist -20.0296
lhand -17.1982 10.1933
lfingers 7.12502
lthumb 9.04407 39.9794
rfemur -0.292595 1.53931 32.277
rtibia 26.3371
rfoot -8.29368 -16.6769
rtoes -22.396
lfemur -41.2809 0.0737332 -14.3444
ltibia 49.6741
lfoot 16.5767 11.3166
ltoes -7.84147
34
root 1.54062 15.7045 26.6695 -178.248 1.40459 183.667
lowerback 0.935841 3.3366 0.16569
upperback 3.30096 4.61708 -0.831478
thorax 2.94859 2.38187 -0.86352
lowerneck -28.6865 1.26239 2.0265
upperneck 41.9847 -3.457 1.217
head 22.2885 -1.76704 -1.05238
rclavicle 1.73937e-014 2.3059e-014
rhumerus -37.1044 8.51907 -94.9025
rradius 76.1955
rwrist 11.5749
rhand -11.0205 -4.42535
rfingers 7.12502
rthumb 15.0008 -33.862
lclavicle 1.73937e-014 2.3059e-014
lhumerus -52.108 -16.0882 86.464
lradius 76.6901
lwrist -20.1408
lhand -17.1925 10.2083
lfingers 7.12502
lthumb 9.04963 39.9942
rfemur 0.821121 1.41552 32.3677
rtibia 24.8921
rfoot -7.63649 -16.4194
rtoes -22.8433
lfemur -41.2803 -0.198934 -14.3201
ltibia 46.1309
lfoot 17.7506 9.76129
ltoes -8.00611
35
root 1.54655 15.7337 26.4801 -177.923 1.14687 183.742
lowerback 0.703598 3.51549 0.244758
upperback 3.17516 4.84852 -0.940441
thorax 2.96978 2.49659 -1.00302
lowerneck -28.6805 1.12484 2.00779
upperneck 42.0365 -3.69813 1.25561
head 22.3272 -1.8489 -1.093
rclavicle -1.72943e-014 1.90833e-014
rhumerus -36.6515 8.75798 -94.9869
rradius 76.3344
rwrist 11.6533
rhand -10.8507 -4.4005
rfingers 7.12502
rthumb 15.1643 -33.8249
lclavicle -1.72943e-014 1.90833e-014
lhumerus -51.9733 -16.3542 86.2689
lradius 76.3216
lwrist -20.1914
lhand -17.1505 10.2288
lfingers 7.12502
lthumb 9.0901 40.0129
rfemur 1.86002 1.32651 32.4174
rtibia 23.5503
rfoot -6.9749 -16.1657
rtoes -23.239
lfemur -41.2585 -0.470369 -14.3593
ltibia 42.7601
lfoot 18.914 8.51094
ltoes -8.31746
36
root 1.55183 15.7578 26.2914 -177.587 0.881606 183.791
lowerback 0.439888 3.67675 0.274489
upperback 3.0669 5.05781 -1.03578
thorax 3.02223 2.59915 -1.09758
lowerneck -28.6775 0.991 1.96454
upperneck 42.0761 -3.91217 1.29123
head 22.3581 -1.92464 -1.12305
rclavicle 7.06679e-014 3.18055e-015
rhumerus -36.2088 9.03212 -95.0089
rradius 76.4482
rwrist 11.6795
rhand -10.635 -4.38992
rfingers 7.12502
rthumb 15.3721 -33.7985
lclavicle 7.06679e-014 3.18055e-015
lhumerus -51.8085 -16.5642 86.1088
lradius 75.9748
lwrist -20.1667
lhand -17.0919 10.2845
lfingers 7.12502
lthumb 9.14671 40.0662
rfemur 2.79614 1.2617 32.4433
rtibia 22.3582
rfoot -6.2917 -15.9183
rtoes -23.6916
lfemur -41.2388 -0.744865 -14.4439
ltibia 39.6547
lfoot 19.9794 7.6547
ltoes -8.91081
37
root 1.55616 15.7768 26.1031 -177.254 0.641994 183.824
lowerback 0.188871 3.83416 0.29867
upperback 2.95419 5.26314 -1.14824
thorax 3.06492 2.70011 -1.20647
lowerneck -28.6671 0.847054 1.87326
upperneck 42.1224 -4.14506 1.37319
head 22.3958 -2.01009 -1.12548
rclavicle 5.99336e-014 -5.00937e-014
rhumerus -35.8016 9.28963 -95.0214
rradius 76.5294
rwrist 11.7317
rhand -10.3603 -4.37228
rfingers 7.12502
rthumb 15.6367 -33.7603
lclavicle 5.99336e-014 -5.00937e-014
lhumerus -51.6571 -16.7575 85.9478
lradius 75.6684
lwrist -20.0886
lhand -17.0175 10.3683
lfingers 7.12502
lthumb 9.21848 40.1468
rfemur 3.62244 1.23055 32.4536
rtibia 21.3743
rfoot -5.63062 -15.6642
rtoes -24.2112
lfemur -41.2253 -1.00162 -14.5601
ltibia 36.9033
lfoot 20.891 7.26533
ltoes -9.76463
38
root 1.55896 15.7898 25.9144 -176.939 0.463881 183.854
lowerback -0.0447148 3.99797 0.324084
upperback 2.83711 5.4779 -1.27036
thorax 3.09564 2.8062 -1.32589
lowerneck -28.6094 0.70926 1.768
upperneck 42.1697 -4.38496 1.48934
head 22.4231 -2.09882 -1.10913
rclavicle -7.53394e-014 -1.82882e-014
rhumerus -35.438 9.50267 -95.0131
rradius 76.5896
rwrist 11.9231
rhand -9.96904 -4.33691
rfingers 7.12502
rthumb 16.0135 -33.6951
lclavicle -7.53394e-014 -1.82882e-014
lhumerus -51.5479 -16.9344 85.8057
lradius 75.4184
lwrist -19.9395
lhand -16.941 10.5013
lfingers 7.12502
lthumb 9.29229 40.2765
rfemur 4.33012 1.22758 32.4514
rtibia 20.6514
rfoot -5.00858 -15.3891
rtoes -24.8036
lfemur -41.2115 -1.20934 -14.6989
ltibia 34.5845
lfoot 21.699 7.31155
ltoes -10.5864
